# xmcd
#
# Track frame offsets: 
#        150
#        2024
#        14572
#        30244
#        53707
#        74772
#        105072
#        122375
#        139957
#        151277
#        168227
#        186255
#        200400
#
# Disc length: 3239 seconds
#
# Revision: 0
# Processed by: cddbd v1.5.2PL0 Copyright (c) Steve Scherf et al.
# Submitted via: ExactAudioCopy v0.95b4
#
DISCID=a10ca50d
DTITLE=Mason Rack band - Night Train
DYEAR=1900
DGENRE=Blues
TTITLE0=Intro
TTITLE1=Ready for you
TTITLE2=Flip Flop Fly
TTITLE3=Cant always get what you want
TTITLE4=Simple Ben
TTITLE5=Why do you love
TTITLE6=Baby please dont go
TTITLE7=Ive got my mojo working
TTITLE8=Rock me
TTITLE9=Gloria
TTITLE10=Sympathy for the devil
TTITLE11=Ring of fire
TTITLE12=Night train
EXTD=
EXTT0=
EXTT1=
EXTT2=
EXTT3=
EXTT4=
EXTT5=
EXTT6=
EXTT7=
EXTT8=
EXTT9=
EXTT10=
EXTT11=
EXTT12=
PLAYORDER=
